<mxfile host="app.diagrams.net" modified="2022-11-08T11:07:11.360Z" agent="5.0 (Windows NT 10.0; Win64; x64) AppleWebKit/537.36 (KHTML, like Gecko) Chrome/107.0.0.0 Safari/537.36 Edg/107.0.1418.35" etag="newZmq_vNFztOdEaAiaC" version="20.2.0" type="github">
  <diagram id="cU4OAi840j_sRIVLiYRo" name="Page-1">
    <mxGraphModel dx="1038" dy="617" grid="1" gridSize="10" guides="1" tooltips="1" connect="1" arrows="1" fold="1" page="1" pageScale="1" pageWidth="3500" pageHeight="3500" math="0" shadow="0">
      <root>
        <mxCell id="0" />
        <mxCell id="1" parent="0" />
        <mxCell id="Y3KX7zLdYKdvh9AWJ_t6-5" style="edgeStyle=orthogonalEdgeStyle;rounded=0;orthogonalLoop=1;jettySize=auto;html=1;exitX=0.5;exitY=1;exitDx=0;exitDy=0;entryX=0.5;entryY=0;entryDx=0;entryDy=0;fontSize=15;fontFamily=Times New Roman;" edge="1" parent="1" source="Y3KX7zLdYKdvh9AWJ_t6-1" target="Y3KX7zLdYKdvh9AWJ_t6-32">
          <mxGeometry relative="1" as="geometry">
            <mxPoint x="1520" y="190" as="targetPoint" />
          </mxGeometry>
        </mxCell>
        <mxCell id="Y3KX7zLdYKdvh9AWJ_t6-6" style="edgeStyle=orthogonalEdgeStyle;rounded=0;orthogonalLoop=1;jettySize=auto;html=1;exitX=0.5;exitY=1;exitDx=0;exitDy=0;entryX=0.5;entryY=0;entryDx=0;entryDy=0;fontSize=15;fontFamily=Times New Roman;" edge="1" parent="1" source="Y3KX7zLdYKdvh9AWJ_t6-1" target="Y3KX7zLdYKdvh9AWJ_t6-2">
          <mxGeometry relative="1" as="geometry" />
        </mxCell>
        <mxCell id="Y3KX7zLdYKdvh9AWJ_t6-7" style="edgeStyle=orthogonalEdgeStyle;rounded=0;orthogonalLoop=1;jettySize=auto;html=1;exitX=0.5;exitY=1;exitDx=0;exitDy=0;entryX=0.5;entryY=0;entryDx=0;entryDy=0;fontSize=15;fontFamily=Times New Roman;" edge="1" parent="1" source="Y3KX7zLdYKdvh9AWJ_t6-1" target="Y3KX7zLdYKdvh9AWJ_t6-4">
          <mxGeometry relative="1" as="geometry" />
        </mxCell>
        <mxCell id="Y3KX7zLdYKdvh9AWJ_t6-1" value="" style="rounded=1;whiteSpace=wrap;html=1;fontSize=15;fontFamily=Times New Roman;" vertex="1" parent="1">
          <mxGeometry x="1300" y="50" width="120" height="60" as="geometry" />
        </mxCell>
        <mxCell id="Y3KX7zLdYKdvh9AWJ_t6-14" style="edgeStyle=orthogonalEdgeStyle;rounded=0;orthogonalLoop=1;jettySize=auto;html=1;exitX=0.5;exitY=1;exitDx=0;exitDy=0;entryX=0.5;entryY=0;entryDx=0;entryDy=0;fontSize=15;fontFamily=Times New Roman;" edge="1" parent="1" source="Y3KX7zLdYKdvh9AWJ_t6-2" target="Y3KX7zLdYKdvh9AWJ_t6-8">
          <mxGeometry relative="1" as="geometry" />
        </mxCell>
        <mxCell id="Y3KX7zLdYKdvh9AWJ_t6-15" style="edgeStyle=orthogonalEdgeStyle;rounded=0;orthogonalLoop=1;jettySize=auto;html=1;exitX=0.5;exitY=1;exitDx=0;exitDy=0;entryX=0.5;entryY=0;entryDx=0;entryDy=0;fontSize=15;fontFamily=Times New Roman;" edge="1" parent="1" source="Y3KX7zLdYKdvh9AWJ_t6-2" target="Y3KX7zLdYKdvh9AWJ_t6-9">
          <mxGeometry relative="1" as="geometry" />
        </mxCell>
        <mxCell id="Y3KX7zLdYKdvh9AWJ_t6-28" style="edgeStyle=orthogonalEdgeStyle;rounded=0;orthogonalLoop=1;jettySize=auto;html=1;exitX=0.5;exitY=1;exitDx=0;exitDy=0;entryX=0.5;entryY=0;entryDx=0;entryDy=0;fontSize=15;fontFamily=Times New Roman;" edge="1" parent="1" source="Y3KX7zLdYKdvh9AWJ_t6-2" target="Y3KX7zLdYKdvh9AWJ_t6-23">
          <mxGeometry relative="1" as="geometry" />
        </mxCell>
        <mxCell id="Y3KX7zLdYKdvh9AWJ_t6-2" value="Release 1" style="rounded=1;whiteSpace=wrap;html=1;fontSize=15;fontFamily=Times New Roman;" vertex="1" parent="1">
          <mxGeometry x="640" y="190" width="120" height="60" as="geometry" />
        </mxCell>
        <mxCell id="Y3KX7zLdYKdvh9AWJ_t6-50" style="edgeStyle=orthogonalEdgeStyle;rounded=0;orthogonalLoop=1;jettySize=auto;html=1;exitX=0.5;exitY=1;exitDx=0;exitDy=0;entryX=0.5;entryY=0;entryDx=0;entryDy=0;fontSize=15;fontFamily=Times New Roman;" edge="1" parent="1" source="Y3KX7zLdYKdvh9AWJ_t6-4" target="Y3KX7zLdYKdvh9AWJ_t6-40">
          <mxGeometry relative="1" as="geometry" />
        </mxCell>
        <mxCell id="Y3KX7zLdYKdvh9AWJ_t6-51" style="edgeStyle=orthogonalEdgeStyle;rounded=0;orthogonalLoop=1;jettySize=auto;html=1;exitX=0.5;exitY=1;exitDx=0;exitDy=0;entryX=0.5;entryY=0;entryDx=0;entryDy=0;fontSize=15;fontFamily=Times New Roman;" edge="1" parent="1" source="Y3KX7zLdYKdvh9AWJ_t6-4" target="Y3KX7zLdYKdvh9AWJ_t6-46">
          <mxGeometry relative="1" as="geometry" />
        </mxCell>
        <mxCell id="Y3KX7zLdYKdvh9AWJ_t6-4" value="Release 2" style="rounded=1;whiteSpace=wrap;html=1;fontSize=15;fontFamily=Times New Roman;" vertex="1" parent="1">
          <mxGeometry x="1760" y="190" width="120" height="60" as="geometry" />
        </mxCell>
        <mxCell id="Y3KX7zLdYKdvh9AWJ_t6-8" value="" style="rounded=1;whiteSpace=wrap;html=1;fontSize=15;fontFamily=Times New Roman;" vertex="1" parent="1">
          <mxGeometry x="280" y="320" width="120" height="60" as="geometry" />
        </mxCell>
        <mxCell id="Y3KX7zLdYKdvh9AWJ_t6-16" style="edgeStyle=orthogonalEdgeStyle;rounded=0;orthogonalLoop=1;jettySize=auto;html=1;exitX=0.5;exitY=1;exitDx=0;exitDy=0;entryX=0.5;entryY=0;entryDx=0;entryDy=0;fontSize=15;fontFamily=Times New Roman;" edge="1" parent="1" source="Y3KX7zLdYKdvh9AWJ_t6-9" target="Y3KX7zLdYKdvh9AWJ_t6-10">
          <mxGeometry relative="1" as="geometry" />
        </mxCell>
        <mxCell id="Y3KX7zLdYKdvh9AWJ_t6-17" style="edgeStyle=orthogonalEdgeStyle;rounded=0;orthogonalLoop=1;jettySize=auto;html=1;exitX=0.5;exitY=1;exitDx=0;exitDy=0;entryX=0.5;entryY=0;entryDx=0;entryDy=0;fontSize=15;fontFamily=Times New Roman;" edge="1" parent="1" source="Y3KX7zLdYKdvh9AWJ_t6-9" target="Y3KX7zLdYKdvh9AWJ_t6-11">
          <mxGeometry relative="1" as="geometry" />
        </mxCell>
        <mxCell id="Y3KX7zLdYKdvh9AWJ_t6-18" style="edgeStyle=orthogonalEdgeStyle;rounded=0;orthogonalLoop=1;jettySize=auto;html=1;exitX=0.5;exitY=1;exitDx=0;exitDy=0;entryX=0.5;entryY=0;entryDx=0;entryDy=0;fontSize=15;fontFamily=Times New Roman;" edge="1" parent="1" source="Y3KX7zLdYKdvh9AWJ_t6-9" target="Y3KX7zLdYKdvh9AWJ_t6-12">
          <mxGeometry relative="1" as="geometry" />
        </mxCell>
        <mxCell id="Y3KX7zLdYKdvh9AWJ_t6-19" style="edgeStyle=orthogonalEdgeStyle;rounded=0;orthogonalLoop=1;jettySize=auto;html=1;exitX=0.5;exitY=1;exitDx=0;exitDy=0;entryX=0.5;entryY=0;entryDx=0;entryDy=0;fontSize=15;fontFamily=Times New Roman;" edge="1" parent="1" source="Y3KX7zLdYKdvh9AWJ_t6-9" target="Y3KX7zLdYKdvh9AWJ_t6-13">
          <mxGeometry relative="1" as="geometry" />
        </mxCell>
        <mxCell id="Y3KX7zLdYKdvh9AWJ_t6-9" value="" style="rounded=1;whiteSpace=wrap;html=1;fontSize=15;fontFamily=Times New Roman;" vertex="1" parent="1">
          <mxGeometry x="640" y="320" width="120" height="60" as="geometry" />
        </mxCell>
        <mxCell id="Y3KX7zLdYKdvh9AWJ_t6-10" value="" style="rounded=1;whiteSpace=wrap;html=1;fontSize=15;fontFamily=Times New Roman;" vertex="1" parent="1">
          <mxGeometry x="520" y="450" width="120" height="60" as="geometry" />
        </mxCell>
        <mxCell id="Y3KX7zLdYKdvh9AWJ_t6-11" value="" style="rounded=1;whiteSpace=wrap;html=1;fontSize=15;fontFamily=Times New Roman;" vertex="1" parent="1">
          <mxGeometry x="680" y="450" width="120" height="60" as="geometry" />
        </mxCell>
        <mxCell id="Y3KX7zLdYKdvh9AWJ_t6-12" value="" style="rounded=1;whiteSpace=wrap;html=1;fontSize=15;fontFamily=Times New Roman;" vertex="1" parent="1">
          <mxGeometry x="840" y="450" width="120" height="60" as="geometry" />
        </mxCell>
        <mxCell id="Y3KX7zLdYKdvh9AWJ_t6-13" value="" style="rounded=1;whiteSpace=wrap;html=1;fontSize=15;fontFamily=Times New Roman;" vertex="1" parent="1">
          <mxGeometry x="360" y="450" width="120" height="60" as="geometry" />
        </mxCell>
        <mxCell id="Y3KX7zLdYKdvh9AWJ_t6-29" style="edgeStyle=orthogonalEdgeStyle;rounded=0;orthogonalLoop=1;jettySize=auto;html=1;exitX=0.5;exitY=1;exitDx=0;exitDy=0;entryX=0.5;entryY=0;entryDx=0;entryDy=0;fontSize=15;fontFamily=Times New Roman;" edge="1" parent="1" source="Y3KX7zLdYKdvh9AWJ_t6-23" target="Y3KX7zLdYKdvh9AWJ_t6-25">
          <mxGeometry relative="1" as="geometry" />
        </mxCell>
        <mxCell id="Y3KX7zLdYKdvh9AWJ_t6-30" style="edgeStyle=orthogonalEdgeStyle;rounded=0;orthogonalLoop=1;jettySize=auto;html=1;exitX=0.5;exitY=1;exitDx=0;exitDy=0;entryX=0.5;entryY=0;entryDx=0;entryDy=0;fontSize=15;fontFamily=Times New Roman;" edge="1" parent="1" source="Y3KX7zLdYKdvh9AWJ_t6-23" target="Y3KX7zLdYKdvh9AWJ_t6-26">
          <mxGeometry relative="1" as="geometry" />
        </mxCell>
        <mxCell id="Y3KX7zLdYKdvh9AWJ_t6-31" style="edgeStyle=orthogonalEdgeStyle;rounded=0;orthogonalLoop=1;jettySize=auto;html=1;exitX=0.5;exitY=1;exitDx=0;exitDy=0;entryX=0.5;entryY=0;entryDx=0;entryDy=0;fontSize=15;fontFamily=Times New Roman;" edge="1" parent="1" source="Y3KX7zLdYKdvh9AWJ_t6-23" target="Y3KX7zLdYKdvh9AWJ_t6-27">
          <mxGeometry relative="1" as="geometry" />
        </mxCell>
        <mxCell id="Y3KX7zLdYKdvh9AWJ_t6-23" value="" style="rounded=1;whiteSpace=wrap;html=1;fontSize=15;fontFamily=Times New Roman;" vertex="1" parent="1">
          <mxGeometry x="1160" y="320" width="120" height="60" as="geometry" />
        </mxCell>
        <mxCell id="Y3KX7zLdYKdvh9AWJ_t6-36" style="edgeStyle=orthogonalEdgeStyle;rounded=0;orthogonalLoop=1;jettySize=auto;html=1;exitX=0.5;exitY=1;exitDx=0;exitDy=0;entryX=0.5;entryY=0;entryDx=0;entryDy=0;fontSize=15;fontFamily=Times New Roman;" edge="1" parent="1" source="Y3KX7zLdYKdvh9AWJ_t6-25" target="Y3KX7zLdYKdvh9AWJ_t6-34">
          <mxGeometry relative="1" as="geometry" />
        </mxCell>
        <mxCell id="Y3KX7zLdYKdvh9AWJ_t6-37" style="edgeStyle=orthogonalEdgeStyle;rounded=0;orthogonalLoop=1;jettySize=auto;html=1;exitX=0.5;exitY=1;exitDx=0;exitDy=0;entryX=0.5;entryY=0;entryDx=0;entryDy=0;fontSize=15;fontFamily=Times New Roman;" edge="1" parent="1" source="Y3KX7zLdYKdvh9AWJ_t6-25" target="Y3KX7zLdYKdvh9AWJ_t6-33">
          <mxGeometry relative="1" as="geometry" />
        </mxCell>
        <mxCell id="Y3KX7zLdYKdvh9AWJ_t6-25" value="" style="rounded=1;whiteSpace=wrap;html=1;fontSize=15;fontFamily=Times New Roman;" vertex="1" parent="1">
          <mxGeometry x="1000" y="450" width="120" height="60" as="geometry" />
        </mxCell>
        <mxCell id="Y3KX7zLdYKdvh9AWJ_t6-26" value="" style="rounded=1;whiteSpace=wrap;html=1;fontSize=15;fontFamily=Times New Roman;" vertex="1" parent="1">
          <mxGeometry x="1160" y="450" width="120" height="60" as="geometry" />
        </mxCell>
        <mxCell id="Y3KX7zLdYKdvh9AWJ_t6-27" value="" style="rounded=1;whiteSpace=wrap;html=1;fontSize=15;fontFamily=Times New Roman;" vertex="1" parent="1">
          <mxGeometry x="1320" y="450" width="120" height="60" as="geometry" />
        </mxCell>
        <mxCell id="Y3KX7zLdYKdvh9AWJ_t6-32" value="Release 3" style="rounded=1;whiteSpace=wrap;html=1;fontSize=15;fontFamily=Times New Roman;" vertex="1" parent="1">
          <mxGeometry x="2120" y="190" width="120" height="60" as="geometry" />
        </mxCell>
        <mxCell id="Y3KX7zLdYKdvh9AWJ_t6-33" value="" style="rounded=1;whiteSpace=wrap;html=1;fontSize=15;fontFamily=Times New Roman;" vertex="1" parent="1">
          <mxGeometry x="1080" y="580" width="120" height="60" as="geometry" />
        </mxCell>
        <mxCell id="Y3KX7zLdYKdvh9AWJ_t6-34" value="" style="rounded=1;whiteSpace=wrap;html=1;fontSize=15;fontFamily=Times New Roman;" vertex="1" parent="1">
          <mxGeometry x="920" y="580" width="120" height="60" as="geometry" />
        </mxCell>
        <mxCell id="Y3KX7zLdYKdvh9AWJ_t6-38" style="edgeStyle=orthogonalEdgeStyle;rounded=0;orthogonalLoop=1;jettySize=auto;html=1;exitX=0.5;exitY=1;exitDx=0;exitDy=0;entryX=0.5;entryY=0;entryDx=0;entryDy=0;fontSize=15;fontFamily=Times New Roman;" edge="1" parent="1" source="Y3KX7zLdYKdvh9AWJ_t6-40" target="Y3KX7zLdYKdvh9AWJ_t6-42">
          <mxGeometry relative="1" as="geometry" />
        </mxCell>
        <mxCell id="Y3KX7zLdYKdvh9AWJ_t6-39" style="edgeStyle=orthogonalEdgeStyle;rounded=0;orthogonalLoop=1;jettySize=auto;html=1;exitX=0.5;exitY=1;exitDx=0;exitDy=0;entryX=0.5;entryY=0;entryDx=0;entryDy=0;fontSize=15;fontFamily=Times New Roman;" edge="1" parent="1" source="Y3KX7zLdYKdvh9AWJ_t6-40" target="Y3KX7zLdYKdvh9AWJ_t6-41">
          <mxGeometry relative="1" as="geometry" />
        </mxCell>
        <mxCell id="Y3KX7zLdYKdvh9AWJ_t6-40" value="" style="rounded=1;whiteSpace=wrap;html=1;fontSize=15;fontFamily=Times New Roman;" vertex="1" parent="1">
          <mxGeometry x="1560" y="320" width="120" height="60" as="geometry" />
        </mxCell>
        <mxCell id="Y3KX7zLdYKdvh9AWJ_t6-41" value="" style="rounded=1;whiteSpace=wrap;html=1;fontSize=15;fontFamily=Times New Roman;" vertex="1" parent="1">
          <mxGeometry x="1640" y="450" width="120" height="60" as="geometry" />
        </mxCell>
        <mxCell id="Y3KX7zLdYKdvh9AWJ_t6-42" value="" style="rounded=1;whiteSpace=wrap;html=1;fontSize=15;fontFamily=Times New Roman;" vertex="1" parent="1">
          <mxGeometry x="1480" y="450" width="120" height="60" as="geometry" />
        </mxCell>
        <mxCell id="Y3KX7zLdYKdvh9AWJ_t6-43" style="edgeStyle=orthogonalEdgeStyle;rounded=0;orthogonalLoop=1;jettySize=auto;html=1;exitX=0.5;exitY=1;exitDx=0;exitDy=0;entryX=0.5;entryY=0;entryDx=0;entryDy=0;fontSize=15;fontFamily=Times New Roman;" edge="1" parent="1" source="Y3KX7zLdYKdvh9AWJ_t6-46" target="Y3KX7zLdYKdvh9AWJ_t6-47">
          <mxGeometry relative="1" as="geometry" />
        </mxCell>
        <mxCell id="Y3KX7zLdYKdvh9AWJ_t6-44" style="edgeStyle=orthogonalEdgeStyle;rounded=0;orthogonalLoop=1;jettySize=auto;html=1;exitX=0.5;exitY=1;exitDx=0;exitDy=0;entryX=0.5;entryY=0;entryDx=0;entryDy=0;fontSize=15;fontFamily=Times New Roman;" edge="1" parent="1" source="Y3KX7zLdYKdvh9AWJ_t6-46" target="Y3KX7zLdYKdvh9AWJ_t6-48">
          <mxGeometry relative="1" as="geometry" />
        </mxCell>
        <mxCell id="Y3KX7zLdYKdvh9AWJ_t6-45" style="edgeStyle=orthogonalEdgeStyle;rounded=0;orthogonalLoop=1;jettySize=auto;html=1;exitX=0.5;exitY=1;exitDx=0;exitDy=0;entryX=0.5;entryY=0;entryDx=0;entryDy=0;fontSize=15;fontFamily=Times New Roman;" edge="1" parent="1" source="Y3KX7zLdYKdvh9AWJ_t6-46" target="Y3KX7zLdYKdvh9AWJ_t6-49">
          <mxGeometry relative="1" as="geometry" />
        </mxCell>
        <mxCell id="Y3KX7zLdYKdvh9AWJ_t6-46" value="" style="rounded=1;whiteSpace=wrap;html=1;fontSize=15;fontFamily=Times New Roman;" vertex="1" parent="1">
          <mxGeometry x="1960" y="320" width="120" height="60" as="geometry" />
        </mxCell>
        <mxCell id="Y3KX7zLdYKdvh9AWJ_t6-47" value="" style="rounded=1;whiteSpace=wrap;html=1;fontSize=15;fontFamily=Times New Roman;" vertex="1" parent="1">
          <mxGeometry x="1800" y="450" width="120" height="60" as="geometry" />
        </mxCell>
        <mxCell id="Y3KX7zLdYKdvh9AWJ_t6-48" value="" style="rounded=1;whiteSpace=wrap;html=1;fontSize=15;fontFamily=Times New Roman;" vertex="1" parent="1">
          <mxGeometry x="1960" y="450" width="120" height="60" as="geometry" />
        </mxCell>
        <mxCell id="Y3KX7zLdYKdvh9AWJ_t6-49" value="" style="rounded=1;whiteSpace=wrap;html=1;fontSize=15;fontFamily=Times New Roman;" vertex="1" parent="1">
          <mxGeometry x="2120" y="450" width="120" height="60" as="geometry" />
        </mxCell>
      </root>
    </mxGraphModel>
  </diagram>
</mxfile>
